<svg width="56" height="56" viewBox="0 0 56 56" fill="none" xmlns="http://www.w3.org/2000/svg">
<path d="M47.1945 41.0667H44.9545V13.1873C44.9545 10.4446 42.7233 8.21338 39.9806 8.21338H15.6275C13.2716 8.21338 11.3545 10.1304 11.3545 12.4864V14.9334C11.3545 15.3457 11.6888 15.68 12.1012 15.68H18.0745V42.0406C18.0745 45.3703 20.2725 47.7867 23.3012 47.7867H43.6271C46.006 47.7867 47.9412 45.8515 47.9412 43.4727V41.8134C47.9412 41.401 47.6068 41.0667 47.1945 41.0667ZM12.8478 14.1867V12.4864C12.8478 10.977 14.0591 9.75077 15.6092 9.71362C17.1072 9.78418 18.0745 10.9477 18.0745 12.6934V14.1867H12.8478ZM26.2878 42.9334C26.2878 44.7183 24.8932 46.192 23.1126 46.2883C23.1104 46.2883 23.108 46.2887 23.1053 46.2887C21.0126 46.1881 19.5678 44.4695 19.5678 42.0406V12.6934C19.5678 11.5043 19.2053 10.481 18.596 9.70671H39.9806C41.8997 9.70671 43.4612 11.2682 43.4612 13.1873V41.0667H27.0345C26.6221 41.0667 26.2878 41.401 26.2878 41.8134V42.9334ZM46.4478 43.4727C46.4478 45.028 45.1824 46.2934 43.6271 46.2934H26.4308C27.2686 45.4194 27.7812 44.2335 27.7812 42.9334V42.56H46.4478V43.4727Z" fill="#D1D1D1"/>
<path d="M11.4449 34.2565C11.1533 33.9649 10.6807 33.9649 10.3891 34.2565L9.8612 34.7844L9.3333 34.2565C9.04173 33.9649 8.56909 33.9649 8.27752 34.2565C7.98594 34.5481 7.98594 35.0207 8.27752 35.3123L8.80541 35.8402L8.27752 36.3681C7.98594 36.6597 7.98594 37.1323 8.27752 37.4239C8.4233 37.5697 8.61445 37.6427 8.80541 37.6427C8.99637 37.6427 9.18752 37.5697 9.3333 37.4239L9.8612 36.896L10.3891 37.4239C10.5349 37.5697 10.726 37.6427 10.917 37.6427C11.1079 37.6427 11.2991 37.5697 11.4449 37.4239C11.7365 37.1323 11.7365 36.6597 11.4449 36.3681L10.917 35.8402L11.4449 35.3123C11.7366 35.0205 11.7366 34.5481 11.4449 34.2565Z" fill="#D1D1D1"/>
<path d="M15.088 34.3466C15.5003 34.3466 15.8346 34.0123 15.8346 33.5999C15.8346 33.1876 15.5003 32.8533 15.088 32.8533C14.6756 32.8533 14.3413 33.1876 14.3413 33.5999C14.3413 34.0123 14.6756 34.3466 15.088 34.3466Z" fill="#D1D1D1"/>
<path d="M12.8477 26.1332C13.2601 26.1332 13.5944 25.7989 13.5944 25.3866C13.5944 24.9742 13.2601 24.6399 12.8477 24.6399C12.4354 24.6399 12.1011 24.9742 12.1011 25.3866C12.1011 25.7989 12.4354 26.1332 12.8477 26.1332Z" fill="#D1D1D1"/>
</svg>
