<svg width="16" height="16" viewBox="0 0 16 16" fill="none" xmlns="http://www.w3.org/2000/svg">
<g clip-path="url(#clip0)">
<path d="M13.7144 0C13.3988 0 13.1429 0.255837 13.1429 0.571439V2.65885C10.201 -0.189375 5.50718 -0.113371 2.65896 2.82854C1.31666 4.215 0.56783 6.07021 0.571547 7.99998C0.571547 8.31559 0.827384 8.57142 1.14299 8.57142C1.45859 8.57142 1.71439 8.31559 1.71439 7.99998C1.7151 4.52849 4.52984 1.71482 8.00136 1.71552C9.76443 1.71586 11.4463 2.45665 12.6367 3.75713L10.1053 4.60111C9.80548 4.70086 9.64326 5.02473 9.743 5.32453C9.84275 5.62433 10.1666 5.78655 10.4664 5.6868L13.895 4.54396C14.129 4.46601 14.2866 4.24664 14.2859 3.99997V0.571406C14.2858 0.255837 14.03 0 13.7144 0Z" fill="#E7B300"/>
<path d="M14.857 7.42859C14.5414 7.42859 14.2856 7.68443 14.2856 8.00003C14.2849 11.4715 11.4701 14.2852 7.99861 14.2845C6.23554 14.2841 4.5537 13.5434 3.36328 12.2429L5.89469 11.3989C6.19449 11.2991 6.35671 10.9753 6.25697 10.6755C6.15722 10.3757 5.83335 10.2135 5.53355 10.3132L2.10498 11.456C1.87094 11.534 1.71334 11.7534 1.71411 12V15.4286C1.71411 15.7442 1.96995 16 2.28555 16C2.60116 16 2.85699 15.7442 2.85699 15.4286V13.3412C5.79893 16.1894 10.4928 16.1134 13.341 13.1715C14.6833 11.785 15.4321 9.9298 15.4284 8.00003C15.4285 7.68443 15.1726 7.42859 14.857 7.42859Z" fill="#E7B300"/>
</g>
<defs>
<clipPath id="clip0">
<rect width="16" height="16" fill="white"/>
</clipPath>
</defs>
</svg>
